<svg id="Layer_1" data-name="Layer 1" xmlns="http://www.w3.org/2000/svg" viewBox="0 0 467.52 274.16"><defs><style>.cls-1{fill:#1d1d29;}</style></defs><title>top workeer-without background</title><polygon class="cls-1" points="156.16 58.91 156.16 63.11 154.28 58.91 156.16 58.91"/><polygon class="cls-1" points="219.21 274.16 210.77 274.16 121.35 74.37 86.31 74.37 86.31 274.16 69.43 274.16 69.43 74.37 0 74.37 0 58.91 114.43 58.91 88.08 0 96.55 0 122.89 58.91 129.81 74.37 219.21 274.16"/><polygon class="cls-1" points="250.6 274.16 242.16 274.16 152.73 74.37 145.81 58.91 154.28 58.91 156.16 63.11 250.6 274.16"/><polygon class="cls-1" points="445.91 58.91 433.53 93.62 433.35 93.56 379.28 244.27 331.66 58.91 309.12 58.91 255.79 207.56 189.29 58.91 180.83 58.91 252.04 218.03 259.14 233.95 259.16 233.95 277.14 274.16 285.58 274.16 267.55 233.85 267.55 233.82 319.8 88.08 368.47 273.16 371.28 274.16 389.72 274.16 440.53 132.49 440.74 132.56 467.52 58.91 445.91 58.91"/></svg>