<svg id="Layer_1" data-name="Layer 1" xmlns="http://www.w3.org/2000/svg" viewBox="0 0 1080 1080"><defs><style>.cls-1{fill:#1d1d29;}.cls-2{fill:#fff;}</style></defs><title>top workeer-bacground</title><rect class="cls-1" width="1080" height="1080"/><polygon class="cls-2" points="462.4 461.83 462.4 466.02 460.52 461.83 462.4 461.83"/><polygon class="cls-2" points="525.45 677.08 517.01 677.08 427.59 477.29 392.55 477.29 392.55 677.08 375.68 677.08 375.68 477.29 306.24 477.29 306.24 461.83 420.67 461.83 394.33 402.92 402.79 402.92 429.13 461.83 436.06 477.29 525.45 677.08"/><polygon class="cls-2" points="556.84 677.08 548.4 677.08 458.98 477.29 452.06 461.83 460.52 461.83 462.4 466.02 556.84 677.08"/><polygon class="cls-2" points="752.15 461.83 739.77 496.54 739.59 496.49 685.52 647.19 637.9 461.83 615.36 461.83 562.03 610.48 495.53 461.83 487.07 461.83 558.28 620.95 565.38 636.87 565.4 636.87 583.39 677.08 591.83 677.08 573.79 636.77 573.79 636.74 626.04 491 674.71 676.08 677.52 677.08 695.96 677.08 746.77 535.41 746.98 535.49 773.76 461.83 752.15 461.83"/></svg>